<svg xmlns="http://www.w3.org/2000/svg" width="255.0mm" height="205.0mm" viewBox="0 0 255.0 205.0">
<rect x="0" y="0" width="255.0" height="205.0" fill="white"/>
<rect x="15.0" y="15.0" width="25.0" height="25.0" fill="black"/>
<rect x="65.0" y="15.0" width="25.0" height="25.0" fill="black"/>
<rect x="115.0" y="15.0" width="25.0" height="25.0" fill="black"/>
<rect x="165.0" y="15.0" width="25.0" height="25.0" fill="black"/>
<rect x="215.0" y="15.0" width="25.0" height="25.0" fill="black"/>
<rect x="40.0" y="40.0" width="25.0" height="25.0" fill="black"/>
<rect x="90.0" y="40.0" width="25.0" height="25.0" fill="black"/>
<rect x="140.0" y="40.0" width="25.0" height="25.0" fill="black"/>
<rect x="190.0" y="40.0" width="25.0" height="25.0" fill="black"/>
<rect x="15.0" y="65.0" width="25.0" height="25.0" fill="black"/>
<rect x="65.0" y="65.0" width="25.0" height="25.0" fill="black"/>
<rect x="115.0" y="65.0" width="25.0" height="25.0" fill="black"/>
<rect x="165.0" y="65.0" width="25.0" height="25.0" fill="black"/>
<rect x="215.0" y="65.0" width="25.0" height="25.0" fill="black"/>
<rect x="40.0" y="90.0" width="25.0" height="25.0" fill="black"/>
<rect x="90.0" y="90.0" width="25.0" height="25.0" fill="black"/>
<rect x="140.0" y="90.0" width="25.0" height="25.0" fill="black"/>
<rect x="190.0" y="90.0" width="25.0" height="25.0" fill="black"/>
<rect x="15.0" y="115.0" width="25.0" height="25.0" fill="black"/>
<rect x="65.0" y="115.0" width="25.0" height="25.0" fill="black"/>
<rect x="115.0" y="115.0" width="25.0" height="25.0" fill="black"/>
<rect x="165.0" y="115.0" width="25.0" height="25.0" fill="black"/>
<rect x="215.0" y="115.0" width="25.0" height="25.0" fill="black"/>
<rect x="40.0" y="140.0" width="25.0" height="25.0" fill="black"/>
<rect x="90.0" y="140.0" width="25.0" height="25.0" fill="black"/>
<rect x="140.0" y="140.0" width="25.0" height="25.0" fill="black"/>
<rect x="190.0" y="140.0" width="25.0" height="25.0" fill="black"/>
<rect x="15.0" y="165.0" width="25.0" height="25.0" fill="black"/>
<rect x="65.0" y="165.0" width="25.0" height="25.0" fill="black"/>
<rect x="115.0" y="165.0" width="25.0" height="25.0" fill="black"/>
<rect x="165.0" y="165.0" width="25.0" height="25.0" fill="black"/>
<rect x="215.0" y="165.0" width="25.0" height="25.0" fill="black"/>
<text x="15.0" y="200.0" font-family="sans-serif" font-size="3.5" fill="black">8x6 interior corners (9x7 squares), 25.0 mm. Print at 100% (actual size); measure a square and pass it to --square.</text>
</svg>